<svg version="1.1" xmlns="http://www.w3.org/2000/svg" xmlns:xlink="http://www.w3.org/1999/xlink" width="147.962" height="154.3266" viewBox="0,0,147.962,154.3266"><defs><linearGradient x1="-767.1527" y1="-1083.1754" x2="-773.6272" y2="-1125.0321" gradientUnits="userSpaceOnUse" id="color-1"><stop offset="0" stop-color="#ff9900"/><stop offset="1" stop-color="#ffcc99"/></linearGradient></defs><g transform="translate(-166.2986,-102.75)"><g data-paper-data="{&quot;isPaintingLayer&quot;:true}" fill-rule="nonzero" stroke-linejoin="miter" stroke-miterlimit="10" stroke-dasharray="" stroke-dashoffset="0" style="mix-blend-mode: normal"><g data-paper-data="{&quot;index&quot;:null}" stroke="none" stroke-width="0.85738" stroke-linecap="butt"><path d="M192.5703,162.726c-5.3218,0.3292 -26.0831,-0.3824 -18.5339,-11.037c-1.7148,-6.7193 -1.1729,-12.8744 -0.7305,-19.0552l-6.6627,2.2918c0.8334,-7.7113 0.5728,-15.4636 8.3294,-22.9074l-3.2288,0.1038c15.0692,-9.011 18.9059,-4.9694 24.8853,-3.4364l-1.0409,-2.7067l8.8507,5.4143c1.4232,-3.775 3.3335,-6.7707 6.1439,-8.3303c7.8707,8.8267 6.9902,14.7632 7.0802,21.6573c3.6336,4.2998 5.5893,9.7175 7.6024,15.0984l-3.5401,-2.0826c3.6224,8.7118 4.5629,17.4228 3.7476,26.1345l-1.665,-2.0825l-0.6251,2.3946c6.6215,4.2638 12.8126,1.2141 19.056,-0.9379c4.5476,-0.1004 9.0934,-0.2478 13.64,1.5621c9.6386,-7.2337 19.0629,-6.4903 28.1125,8.2274l-2.8285,-0.0703c2.6141,18.4052 8.1888,26.4483 12.8238,27.5586l-4.9985,-0.1038c9.1799,8.7495 21.5535,0.2152 24.6778,-4.2688c-0.6473,6.2202 -0.5959,12.5151 -12.2862,17.595l3.0188,0.4158c-18.3289,8.7761 -23.3,-6.5495 -25.8224,-9.3728l-1.25,1.8759c-3.9988,-7.2954 -3.6687,-15.6342 -4.9968,-23.5315l-1.1463,2.1881c-1.2278,-20.1689 -7.202,-19.0715 -10.7241,-17.4939c9.9919,11.2633 9.7321,24.5038 4.4772,37.0694c9.3566,-3.7424 14.8403,38.6093 9.2674,49.7698c-5.1365,2.0714 -10.2739,2.9579 -15.4113,0.7296l-1.5604,-2.6021c-2.8277,-0.2255 -5.8156,0.0266 -7.7044,-3.0197c0.1689,-3.4312 4.2046,-12.6994 3.1011,-23.234c-0.8514,-8.1228 -5.8661,-16.8217 -11.223,-25.2883c-7.8099,1.0915 -15.6188,1.3787 -23.4287,0.313l-3.5401,44.8767c-3.4097,2.5644 -9.8615,6.6978 -17.5967,1.2509l1.5621,-5.9365c-4.9513,-7.736 -6.6395,-16.621 -8.0173,-25.6132c3.0214,-5.3063 7.6564,-9.1662 8.1202,-16.7642c-1.3109,-4.9008 -2.8473,-9.576 -3.8513,-14.7855c0.6113,-7.3957 1.9205,-14.848 -2.0834,-21.8664z" fill="#ff9900"/><path d="M189.0825,141.5376c0.186,-5.5343 2.927,-8.3113 6.5589,-8.8506c3.5452,-0.5273 8.4125,2.8533 8.6423,6.4028c0.397,6.1131 -4.3743,11.8095 -10.7249,10.6203c-4.3237,-0.8093 -4.617,-3.9825 -4.4763,-8.1725z" fill="#fcfbfa"/><path d="M172.6749,155.9364l7.1333,-2.0311c7.6813,-7.5981 23.5778,-6.4646 25.0937,0.0523c2.2789,9.8032 -10.3254,7.6023 -15.0461,8.7992c-8.2908,0.6653 -14.5702,-0.9757 -17.1809,-6.8204z" fill="#fcfbfa"/><path d="M214.8003,200.5765c0.7973,-3.7828 0.9285,-7.815 5.9862,-9.997c8.085,-2.6141 15.0658,-1.6616 19.4187,-1.0417c0.6867,3.7021 2.7127,7.0716 5.0499,10.3605c-10.8158,2.801 -20.7382,2.14 -30.4548,0.6782z" fill="#fcfbfa"/><path d="M282.0365,209.6321l-1.7671,-8.8353l5.8165,2.5773l-2.134,-7.0673l2.7418,1.7481l-0.1663,-1.6753h1.7679l5.3483,4.3615l-4.3177,-0.3104c7.0527,7.8081 20.6044,1.2158 24.4446,-4.1239c0.4544,9.7972 -5.2994,14.2049 -12.2227,17.595l2.7264,0.2212c-13.2653,6.0582 -18.4001,-0.5599 -22.2377,-4.4909z" fill="#fcfbfa"/><path d="M173.0941,134.0279c1.6899,-0.2349 4.3521,1.2029 4.7242,5.9082c0.1491,6.3891 -0.6945,10.9564 -4.3341,9.6189c-0.9705,-5.176 -1.1386,-10.352 -0.3901,-15.5271z" fill="#fcfbfa"/></g><g data-paper-data="{&quot;index&quot;:null}"><path d="M201.5727,134.3288c1.4815,1.2064 2.6193,2.8097 3.1217,4.3821l-0.5967,0.186c-0.4562,-1.4275 -1.5227,-2.9459 -2.9143,-4.0794c-1.3915,-1.1334 -3.0908,-1.875 -4.8038,-1.8099c-1.5373,0.0575 -3.132,0.4939 -4.4018,1.7508c-1.2706,1.2569 -2.2472,3.3626 -2.4752,6.8281c-0.2109,2.8911 0.2323,4.797 0.998,6.0059c2.0345,3.9037 8.572,2.1658 11.4168,-0.9259c-1.2175,1.6736 -3.4124,2.837 -4.5801,3.1662c-1.1686,0.3293 -2.5542,0.535 -3.8839,0.3224c-1.3307,-0.2118 -2.6185,-0.8651 -3.4827,-2.23c-0.8642,-1.3658 -1.3015,-3.4038 -1.0854,-6.3789c0.234,-3.5658 1.2457,-5.8387 2.651,-7.2294c1.4052,-1.3898 3.1714,-1.8742 4.8124,-1.9368c1.9068,-0.072 3.7442,0.7408 5.224,1.9488z" fill="#000000" stroke="none" stroke-width="0.85738" stroke-linecap="butt"/><path d="M193.9618,145.8168c0,0.6302 -0.5119,1.1412 -1.142,1.1412c-0.6294,0 -1.1404,-0.511 -1.1404,-1.1412c0,-0.6302 0.511,-1.142 1.1404,-1.142c0.6207,0 1.1257,0.4947 1.142,1.1137" fill="#000000" stroke="none" stroke-width="0.85738" stroke-linecap="butt"/><path d="M176.1258,145.2089c0,0.6311 -0.5101,1.142 -1.1394,1.142c-0.6311,0 -1.1421,-0.5109 -1.1421,-1.142c0,-0.6293 0.511,-1.1411 1.1421,-1.1411c0.6181,0 1.124,0.4947 1.1394,1.1128" fill="#000000" stroke="none" stroke-width="0.85738" stroke-linecap="butt"/><path d="M174.2919,133.6909c0.5281,0.0395 1.0683,0.2315 1.5561,0.5968c0.9749,0.7322 1.7319,2.1357 1.9848,4.3726v0.0103l0.0112,0.0103c0.3001,2.9425 0.7005,5.9467 -0.499,9.107l-0.0112,0.0103l-0.0111,0.0189c-0.4578,0.9491 -0.9766,1.7173 -1.6916,2.1125c-0.7168,0.3961 -1.5724,-0.0043 -2.5181,-0.6344c2.3466,0.9285 3.1183,0.0934 3.835,-1.8262c1.0443,-2.9588 0.6088,-5.7487 0.2675,-8.7401c-0.0017,-0.006 0,-0.0129 0,-0.0197c-0.2443,-2.1143 -0.9645,-3.3309 -1.7516,-3.9234c-0.7905,-0.5933 -1.6676,-0.6027 -2.3964,-0.234l-0.2829,-0.5573c0.4596,-0.2332 0.9783,-0.3421 1.5073,-0.3036z" fill="#000000" stroke="none" stroke-width="0.85738" stroke-linecap="butt"/><path d="M176.8211,157.5191c-1.6564,-0.1432 -3.5161,-0.4527 -4.5543,-3.072c-0.2058,-1.701 2.2789,-1.5604 4.6332,-1.5098c2.8551,-0.1963 4.7284,0.1758 4.8159,1.6402c0.042,1.6898 -3.0163,2.6724 -4.8948,2.9416z" fill="#000000" stroke="none" stroke-width="0.85738" stroke-linecap="butt"/><path d="M180.9605,158.5608c0.5196,-0.1037 8.0697,-1.7696 8.0697,-1.7696c0.0771,1.2861 0.4089,3.4132 -2.2387,4.1128c-2.681,0.6191 -4.538,-0.3266 -5.831,-2.3432z" fill="#fcfbfa" stroke="#000000" stroke-width="0.42869" stroke-linecap="butt"/><path d="M199.7028,153.2494c0,0 -6.6644,2.1348 -7.0279,2.1348" fill="none" stroke="#000000" stroke-width="0.85738" stroke-linecap="round"/><path d="M192.5437,158.2753c0.3635,0 8.3825,1.0923 8.3825,1.0923" fill="none" stroke="#000000" stroke-width="0.85738" stroke-linecap="round"/><path d="M173.3333,157.8578l-4.478,1.5621" fill="none" stroke="#000000" stroke-width="0.85738" stroke-linecap="round"/><path d="M168.1531,154.2388l4.322,0.8342" fill="none" stroke="#000000" stroke-width="0.85738" stroke-linecap="round"/><path d="M204.414,138.3808c1.3135,0.6302 2.6999,0.3112 3.8531,-0.7031c-0.475,0.9569 -1.9034,2.2764 -4.1712,1.2132z" fill="#000000" stroke="none" stroke-width="0.85738" stroke-linecap="butt"/><path d="M203.6587,137.033c1.4635,0.096 2.9511,-0.433 4.1394,-1.0923c-0.8137,0.9508 -2.176,1.6925 -3.8273,1.7568z" fill="#000000" stroke="none" stroke-width="0.85738" stroke-linecap="butt"/><path d="M202.8005,135.7315c1.4403,-0.1449 2.7058,-1.0529 3.462,-2.1083c-0.4587,2.0517 -1.7816,2.3535 -3.0719,2.7076z" fill="#000000" stroke="none" stroke-width="0.85738" stroke-linecap="butt"/><path d="M172.7203,135.5103c-1.7825,-0.1063 -2.8971,-0.1706 -3.6807,-1.6762c1.4318,0.7905 1.8374,1.2578 3.865,0.8471z" fill="#000000" stroke="none" stroke-width="0.85738" stroke-linecap="butt"/><path d="M173.1439,134.442c-1.4164,-0.0403 -2.6999,-0.3284 -3.4433,-2.4289c0.992,1.3315 2.4067,1.9453 3.9405,1.7301z" fill="#000000" stroke="none" stroke-width="0.85738" stroke-linecap="butt"/></g><g data-paper-data="{&quot;index&quot;:null}" stroke-linecap="butt"><path d="M192.7897,162.4413c3.2289,4.3486 3.6525,10.2868 2.5927,18.2038c-0.6533,4.8896 0.1904,8.3491 1.2132,11.1527c1.0237,2.8028 2.2764,4.9385 2.2798,7.2088c0.006,4.5544 -1.9788,8.3363 -3.9225,11.3465c-0.9723,1.5073 -1.9308,2.8191 -2.6407,3.944c-0.7116,1.1231 -1.142,2.0594 -1.1455,2.6793c-0.0471,7.4248 2.3218,14.8951 5.2832,20.4946c1.4807,2.7985 3.1122,5.1331 4.6367,6.7484c1.5235,1.6162 2.9639,2.4633 3.883,2.4753c2.4281,0.0317 4.2655,-1.6968 5.5078,-3.9028c1.2423,-2.206 1.8168,-4.8682 1.7216,-6.2614c-0.042,-0.6104 -0.5496,-1.8811 -1.3204,-3.3369c-0.7725,-1.455 -1.7876,-3.1431 -2.7993,-4.803c-1.0117,-1.6599 -2.0225,-3.294 -2.7779,-4.665c-0.3781,-0.6867 -0.6953,-1.3049 -0.9191,-1.8399c-0.2238,-0.535 -0.3729,-0.9663 -0.3618,-1.3898c0.012,-0.409 0.2135,-0.7116 0.481,-1.0855c0.2658,-0.3746 0.6259,-0.7973 1.0554,-1.2629c0.8582,-0.9311 1.9943,-2.0482 3.1689,-3.2683c2.3492,-2.4358 4.8304,-5.3011 5.4683,-7.5612c0.3773,-1.3358 0.0274,-2.7959 0.0292,-4.9179c0,-2.1246 0.6584,-5.4186 2.8627,-9.2219c-0.9594,2.3629 -2.086,5.8542 -1.9239,9.2219c-0.0026,2.0097 0.3918,3.5384 -0.0686,5.1743c-0.7476,2.651 -3.3232,5.5043 -5.693,7.9624c-1.1857,1.2295 -2.3183,2.3432 -3.15,3.2478c-0.4167,0.4518 -0.7647,0.8582 -0.9885,1.1737c-0.2255,0.3155 -0.3035,0.5667 -0.3035,0.5667c-0.0035,0.1321 0.09,0.5162 0.2949,0.998c0.2032,0.4819 0.5007,1.0812 0.8711,1.7508c0.7365,1.34 1.7456,2.9648 2.7582,4.6264c1.0134,1.6633 2.0371,3.3626 2.8285,4.8527c0.7887,1.4918 1.3597,2.7385 1.4266,3.7073c0.1175,1.7079 -0.5033,4.4172 -1.839,6.7896c-1.3367,2.3723 -3.4596,4.4197 -6.3403,4.3811c-1.4181,-0.0171 -2.9537,-1.0674 -4.5578,-2.7684c-1.6033,-1.6976 -3.2606,-4.094 -4.773,-6.9542c-3.0249,-5.7204 -5.4478,-13.315 -5.3998,-20.9422c0.0052,-0.9929 0.5539,-2.0046 1.2912,-3.1698c0.7365,-1.1668 1.6968,-2.4752 2.651,-3.9516c1.9077,-2.9536 3.7716,-6.5495 3.7665,-10.8295c-0.0035,-1.9119 -1.1686,-4.0159 -2.2206,-6.8967c-1.052,-2.8808 -1.948,-6.5469 -1.2707,-11.6012c1.046,-7.8244 0.6011,-13.4582 -2.4083,-17.5101l0.7527,-0.5659z" fill="#000000" stroke="none" stroke-width="0.85738"/><path d="M218.2949,201.7922l-3.8744,44.4815c-0.1629,1.9128 -9.0916,5.4975 -16.3845,2.6236c-1.9574,-1.0332 -1.1369,-3.4089 0.469,-6.8282" fill="none" stroke="#000000" stroke-width="1.28606"/><path d="M245.2234,199.4722c-1.2509,2.4066 -23.5916,4.0125 -30.7755,1.0314" fill="none" stroke="#000000" stroke-width="1.28606"/><path d="M241.372,200.7925c8.0568,14.7743 16.2344,24.9505 8.4666,45.1331c-1.713,5.0062 1.4618,5.9005 2.7248,6.4809c1.8407,0.4579 3.5289,0.3601 5.2282,0.295" fill="none" stroke="#000000" stroke-width="1.28606"/><path d="M246.0636,162.6274c10.3108,-0.3396 17.2135,5.3688 20.6302,13.1692c3.7998,8.6681 3.3797,19.8671 -1.0083,28.398c1.4001,-0.03 2.6621,0.3644 3.6781,1.2621c1.2123,1.0717 2.0843,2.7676 2.6519,5.0962c3.1165,12.4499 7.3297,26.1148 4.1274,41.2123v0.0103c-0.2186,0.956 -0.4501,1.7447 -0.8325,2.4161c-0.3824,0.6704 -0.9329,1.2097 -1.7216,1.5938c-1.5785,0.7682 -4.0408,1.0375 -8.482,1.2912h-0.0198h-0.018c-1.4575,-0.0231 -3.5264,-0.0488 -5.2034,-0.7639c-0.8385,-0.3584 -1.5836,-0.9105 -2.0543,-1.7327c-0.4698,-0.818 -0.6404,-1.8803 -0.4106,-3.198c0,-0.0018 0,-0.0069 0,-0.0103c0.9174,-6.0051 5.9947,-15.0504 2.6124,-27.6341c-1.894,-7.0408 -7.7695,-14.6165 -15.9935,-24.9839c-0.0068,-0.006 -0.0137,-0.012 -0.0197,-0.0197c-3.7665,-4.2449 -4.232,-9.7707 -4.5681,-15.1421c0.523,4.3923 1.8039,11.1836 5.2917,14.5368l0.0103,0.0094v0.0103c8.2368,10.3811 14.2136,17.9963 16.1898,25.3457c3.4758,12.9267 -1.7362,22.4092 -2.5918,28.0259v0.012c-0.2041,1.1635 -0.0523,1.978 0.2932,2.5824c0.3464,0.6036 0.9054,1.0271 1.6144,1.3315c1.4104,0.6019 3.3669,0.6722 4.8142,0.6936c0.012,0 0.0257,0 0.0386,0c4.3889,-0.2495 6.8024,-0.5658 8.091,-1.1926c0.6465,-0.3146 1.0186,-0.6859 1.3195,-1.214c0.301,-0.5273 0.5136,-1.2304 0.7245,-2.1538c0,-0.0025 -0.0009,-0.0068 0,-0.0094c3.1397,-14.8171 -0.9911,-28.3096 -4.118,-40.7922c-0.5401,-2.2154 -1.3503,-3.7364 -2.3577,-4.6264c-1.0075,-0.8908 -2.2172,-1.2046 -3.7468,-0.9885l-0.9294,0.1363l0.4493,-0.8308c4.5827,-8.3208 5.0834,-19.6827 1.3109,-28.2899c-3.7707,-8.6072 -11.686,-14.4871 -24.2208,-12.1019c-0.0043,0 -0.0077,0 -0.0112,0c-3.3017,0.6748 -12.2784,5.2797 -18.8416,0.3515l0.5581,-0.7424c6.0094,4.5106 14.3636,0.2332 18.1078,-0.529h0.0103c1.6101,-0.3078 3.1508,-0.4802 4.6255,-0.529z" fill="#000000" stroke="none" stroke-width="0.85738"/><path d="M210.2802,102.75c0.0077,0 0.0129,0.0103 0.0189,0.0086c0.6438,-0.0223 1.2157,0.3721 1.8296,0.9782c0.6207,0.6122 1.2835,1.4816 1.9368,2.5722c1.3075,2.182 2.5944,5.2548 3.3763,8.8335c0.6114,2.8088 0.884,5.939 0.6251,9.1953c3.6078,3.974 5.7753,9.6764 7.7867,15.75l0.4887,1.4867l-1.2329,-0.968l-2.1906,-1.7327c1.0965,2.6921 2.2086,6.7698 2.867,11.4254c0.6611,5.1373 0.878,13.7625 -1.4267,18.5964c0.1775,-1.9908 0.1209,-2.867 0.0086,-4.5784c-0.0266,-0.7519 -0.1646,-1.3812 -0.4107,-1.8305c-1.4232,4.2449 -4.2294,9.8101 -10.9263,13.3528l-1.1061,0.5882l0.4407,-1.1635c1.6968,-4.4661 2.9185,-8.987 2.6107,-13.832c-1.2312,1.4807 -2.3946,2.0697 -3.4629,2.8267l-0.9868,0.6954l0.264,-1.1841c0.8205,-3.7827 3.3044,-7.3031 4.1592,-10.9949c-1.3641,1.6041 -2.6536,2.9948 -3.8445,3.9619c-1.5098,1.226 -2.9099,1.9325 -4.2354,1.9274h-0.8223l0.4219,-0.7031c3.3943,-5.6887 6.7012,-11.3525 7.8441,-18.5579l-2.6313,0.4107l-1.2038,0.1955l0.7648,-0.9491c6.3395,-7.8604 6.7999,-16.7677 5.2832,-23.7219c-0.7579,-3.4766 -2.02,-6.4586 -3.2683,-8.5403c-0.6242,-1.04 -1.2424,-1.8553 -1.78,-2.386c-0.5392,-0.5316 -1.0031,-0.7305 -1.1454,-0.7245h-0.0103h-0.0103c-0.0763,0 -0.3592,0.0969 -0.7047,0.3721c-0.3447,0.2752 -0.7648,0.6996 -1.2021,1.2423c-0.8788,1.0854 -1.8528,2.6502 -2.7196,4.4609c-2.1014,4.6573 -2.8936,7.7927 -2.2326,14.71c-2.753,-6.3111 -0.0369,-11.5445 1.3812,-15.1207c0.8951,-1.869 1.9077,-3.4758 2.8465,-4.6366c0.4673,-0.5805 0.9131,-1.0512 1.3393,-1.3898c0.4184,-0.3327 0.8102,-0.5573 1.262,-0.5668v-0.0094zM212.6388,138.71l2.1803,-0.3421l0.6165,-0.0977l-0.0772,0.6259c-1.0185,7.3545 -4.2568,13.0938 -7.5817,18.6839c0.7982,-0.2315 1.713,-0.7416 2.729,-1.5656c1.4232,-1.1574 3.0274,-2.8833 4.7944,-5.0868l0.968,-1.2029l-0.1269,1.5356c-0.3567,4.2011 -2.9476,7.8913 -4.0974,11.5042c0.9577,-0.6198 1.8854,-1.2595 2.9237,-2.8465l0.7039,-1.076l0.1569,1.2818c0.5898,5.0585 -0.5359,9.7227 -2.152,14.2324c5.9716,-3.6164 8.4365,-8.9552 9.6643,-12.9129l0.1963,-0.607l0.5179,0.3618c0.5873,0.4013 0.8659,1.0374 1.0374,1.7413c0.5041,-4.0502 0.3378,-8.4597 -0.2349,-12.5108c-0.625,-4.3109 -1.8502,-10.1779 -4.3735,-14.5891c1.166,1.0623 3.0634,2.4924 3.9525,3.036c-1.7533,-5.1297 -3.6893,-9.8367 -6.5246,-13.255c-0.5427,4.34 -2.1186,8.8404 -5.2729,13.0895z" fill="#000000" stroke="none" stroke-width="0.85738"/><path d="M195.7537,105.4319c3.2332,1.4104 6.1371,3.4758 8.9124,5.771l-0.607,0.7236c-2.4204,-2.0037 -4.9256,-3.7768 -7.6204,-5.1065l0.812,2.104l0.499,1.2817l-1.1738,-0.7047c-3.5281,-2.1203 -8.3457,-2.6845 -12.9712,-2.0054c-3.7579,0.5513 -7.3314,1.9479 -10.027,3.9027c0.5221,-0.0523 1.0666,-0.0634 1.6624,0.0292l0.9294,0.1466l-0.6764,0.6559c-6.3652,6.1808 -8.1082,14.0858 -8.2274,21.9805c9.7089,-3.378 15.4593,-4.3366 22.4641,-10.5603c-2.7488,3.0814 -6.1963,6.5384 -9.3266,9.6318c4.8391,-0.5959 9.4886,-3.5264 14.0576,-8.5592l0.8119,-0.9002v1.214v2.3861c2.651,-2.3381 5.2849,-4.8862 7.033,-8.2763l0.8326,0.4304c-2.0149,3.9062 -5.1006,6.7099 -8.0208,9.2443l-0.7828,0.6756v-1.028v-2.2695c-4.821,5.0422 -9.8478,7.9667 -15.1824,8.1588l-1.1943,0.0386l0.8505,-0.8411l5.1949,-5.2043c-2.411,2.2309 -10.8244,5.0234 -17.0789,6.955l-0.6259,0.2152l0.0103,-0.6558c0.0308,-7.9471 1.683,-16.1144 7.8758,-22.5876c-1.3015,-0.0832 -2.783,0.3833 -4.0897,1.2072c0.1929,-0.3327 0.4827,-0.7339 1.0666,-1.3349c2.9374,-2.9177 7.5158,-4.8819 12.3068,-5.5858c4.3349,-0.6362 8.8378,-0.2212 12.4619,1.5458l-0.8025,-2.0834l-0.4107,-1.0469z" fill="#000000" stroke="none" stroke-width="0.85738"/><path d="M174.1015,151.9633c-1.4584,-4.4317 -2.5189,-10.3862 -0.6996,-19.4178" fill="none" stroke="#000000" stroke-width="1.28606"/><path d="M176.6788,149.7924c-1.8253,1.6736 -2.4435,2.2764 -3.4046,4.178c-0.379,0.7322 -0.4287,1.3804 -0.283,2.0054c0.2864,1.2389 1.449,2.4273 2.6493,3.3944c0.0077,0.0034 0.0137,0.0051 0.0197,0.0094c0.0035,0.0043 0.0069,0.0077 0.0103,0.0112c3.6979,2.4889 8.2686,3.0205 12.7852,2.9536c3.4595,-0.0686 10.7506,-0.601 15.2793,-1.8288c-5.2814,1.8417 -9.582,2.6845 -15.2716,2.7685c-4.6118,0.0686 -9.4045,-0.4673 -13.3519,-3.1397l-0.0094,-0.0103l-0.0197,-0.0103c-1.2629,-1.0134 -2.6322,-2.2986 -3.0128,-3.9439c-0.1895,-0.8222 -0.1003,-1.731 0.3721,-2.6407c0.4724,-0.9106 1.3169,-1.8211 2.6227,-2.7591z" fill="#000000" stroke="none" stroke-width="0.85738"/><path d="M266.8901,159.7611c3.8359,-0.0831 7.875,1.0718 10.9341,4.3075l0.0103,0.018l0.0103,0.0103c2.2051,2.7513 4.4609,6.4492 7.0433,9.7141c-0.9903,-0.1389 -1.9814,-0.2744 -2.9742,-0.4013c1.4935,6.8367 2.6124,12.9121 4.2954,17.5205c1.7396,4.7644 4.0305,7.9487 7.9625,9.1464l1.1943,0.3618l-1.1343,0.5179c-1.3452,0.6087 -2.5927,0.7305 -3.7948,0.3035c0.8523,0.7871 1.6436,1.3247 2.3964,1.6625c1.6256,0.7304 3.1509,0.6584 4.9985,0.6164c6.8933,-0.1072 12.1619,-2.9065 15.4859,-8.1082l0.7631,-1.1952l0.1089,1.4096c0.4732,6.4097 -1.4747,10.8312 -4.3735,13.7728c-1.9171,1.9428 -4.232,3.2015 -6.5161,4.0588l1.2424,-0.0385l1.5535,-0.0583l-1.2706,0.9096c-5.7496,4.0906 -12.5331,3.8428 -17.2452,1.2141c-3.9783,-2.2198 -6.8933,-6.378 -8.921,-10.1633l-0.9106,1.8973l-0.3626,0.764l-0.4596,-0.7134c-3.2486,-5.1057 -4.4669,-12.9 -4.2337,-17.355v-0.0111v-0.0103c0.2769,-3.2855 -0.1055,-4.7601 -0.4707,-6.0256c-0.2229,0.3781 -0.4012,0.775 -0.4698,1.2423l-0.2152,1.4181l-0.6645,-1.2629c-1.0966,-2.0834 -0.8754,-4.4558 -1.1352,-7.1308c-0.258,-2.6759 -0.9379,-5.6827 -3.7064,-9.1962l-0.0111,-0.0103l-0.0103,-0.0103c-0.842,-1.184 -1.8888,-1.4755 -2.9134,-1.4284c-1.0254,0.0472 -2.0191,0.4904 -2.4367,0.764l-0.5092,-0.7828c0.5761,-0.3773 1.6547,-0.8634 2.9056,-0.92c1.2475,-0.0557 2.6845,0.3755 3.7073,1.8005c0.0051,0.006 0.0069,0.0129 0.0103,0.018c2.8756,3.6558 3.6267,6.9113 3.895,9.6746c0.211,2.1915 0.1775,4.04 0.6062,5.5952c0.2264,-0.4406 0.499,-0.8359 0.8025,-1.1943l0.5779,-0.673l0.234,0.8488c0.3713,1.3701 1.0949,3.15 0.7434,7.3383c-0.0017,0.0025 0,0.0077 0,0.0111c-0.0017,0.0034 0,0.006 0,0.0111c-0.2058,4.016 0.9242,11.1742 3.667,16.0124l0.9097,-1.8871l0.4115,-0.8625l0.4321,0.8522c1.9883,3.8985 5.0174,8.3474 8.9879,10.5637c4.0031,2.2343 9.6489,2.6185 14.74,-0.2452c-1.8271,0.06 -3.4295,0.0386 -5.4521,-0.144c4.611,-0.9766 8.0628,-2.1297 11.8121,-5.5275c2.5129,-2.5524 4.2568,-6.2674 4.1462,-11.7006c-3.5169,4.7181 -8.8181,7.31 -15.4361,7.4137c-0.0035,0 -0.0069,0 -0.0103,0c-1.828,0.0429 -3.5478,0.132 -5.3886,-0.6945c-2.4144,-1.1909 -6.2229,-5.019 -7.3083,-8.2968c1.539,2.1092 2.9862,3.7776 5.4298,4.8425c0.6781,0.2812 1.3443,0.3198 2.0842,0.1577c-3.5306,-1.5715 -5.7238,-4.8519 -7.3271,-9.2442c-2.0182,-5.6595 -2.9322,-12.5537 -4.6264,-18.9385c0.7082,0.0934 1.4164,0.1886 2.1246,0.2837c-1.8382,-2.5266 -3.5864,-5.278 -5.6844,-7.8749c-0.0051,-0.0052 -0.012,-0.0129 -0.018,-0.0189c-3.2658,-3.4286 -7.6932,-4.3512 -11.7589,-3.8933c-4.0743,0.4587 -7.7498,2.3569 -9.3222,4.3529l-0.7434,-0.5779c1.8236,-2.3132 5.6664,-4.2217 9.9567,-4.7044c0.5342,-0.0592 1.0829,-0.0943 1.6316,-0.1064z" fill="#000000" stroke="none" stroke-width="0.85738"/><path d="M198.4836,196.7089l-0.8806,0.3223c-2.5669,-6.967 -0.0402,-12.8332 1.7131,-16.2284c-1.1961,2.9443 -3.5015,11.6766 -0.8325,15.9061z" fill="#000000" stroke="none" stroke-width="0.85738"/><path d="M211.9821,125.7722c1.2115,-4.0416 1.767,-8.2651 -0.0369,-11.9278c2.9742,3.9268 2.1314,8.0011 0.0369,11.9278z" fill="#000000" stroke="none" stroke-width="0.85738"/></g><g data-paper-data="{&quot;index&quot;:null}" stroke="none" stroke-width="0.85738" stroke-linecap="butt"><path d="M256.6427,193.9147c-13.2361,3.4355 -14.018,-6.2263 -11.3027,-9.4714c0.6953,-0.8343 1.1068,-1.1789 0.9319,-1.9274c0.036,-3.4852 -3.5666,-11.921 3.697,-12.6532c1.0023,-0.1003 2.2935,0.3979 3.4433,-0.2357c6.9053,-2.5919 6.642,5.9098 6.937,6.8298c0.3472,2.7308 0.0934,4.9625 0.8625,6.6292c1.4044,3.048 1.8879,7.208 1.7859,10.6512c-0.5539,2.9588 -5.5558,3.3626 -6.3549,0.1775z" fill="#fcfbfa"/><path d="M257.2352,191.2731c-2.0577,2.9297 -7.779,1.3787 -10.1693,0.3232c-3.95,-2.1331 -0.2118,-8.007 1.4901,-8.668l6.7861,-2.6948c0.4347,-0.1731 0.1055,-3.2597 -0.4853,-4.9393c-0.739,-2.2026 -2.1391,-0.5256 -2.3243,-0.1397c-0.8694,1.737 -1.5184,4.6572 -2.0551,6.3694c-0.265,0.8548 -1.5725,1.0854 -2.5833,1.0923c-0.9311,0.006 -0.7914,-8.1022 -0.7914,-8.1022c-0.0814,-1.2346 0.535,-2.4701 1.1712,-2.5996c1.4867,-0.3035 1.9162,0.547 2.1177,1.6419c0.9071,-2.0002 6.6361,-3.5401 7.1402,-1.2269c0.4973,1.4395 0.9029,2.9374 1.2724,4.4618c0.9542,5.3903 -2.8516,6.0522 -5.4341,7.1711c-5.6303,2.2437 -4.7455,3.6618 -4.7018,4.4995c0.6165,2.0868 7.1342,3.4269 7.4017,-2.2506c-0.1483,-1.7714 0.6482,-2.4041 1.7679,-2.6459c0.8162,-0.2212 1.5107,-0.0746 1.7988,1.3092l1.4644,6.8873c0,0 0.2615,1.3478 -0.355,2.1057c-0.27,0.3335 -1.0528,0.3044 -1.5235,0.4167c-1.7791,0.4261 -2.1237,-2.7942 -1.9874,-3.0111z" fill="url(#color-1)"/></g></g></g></svg>